<?xml version="1.0"?>
<svg version="1.1" id="topsvg"
xmlns="http://www.w3.org/2000/svg" xmlns:xlink="http://www.w3.org/1999/xlink"
xmlns:cml="http://www.xml-cml.org/schema" x="0" y="0" width="100%" height="100%" viewBox="0 0 100 100">
<title>OBDepict</title>
<rect x="0" y="0" width="100" height="100" fill="white"/>
<text text-anchor="middle" font-size="3" fill ="black" font-family="sans-serif"
x="25" y="49" >MOGQOO</text>
<g transform="translate(0,0)">
<svg width="50" height="50" x="0" y="0" viewBox="0 0 386.705 282.178"
font-family="sans-serif" stroke="rgb(0,0,0)" stroke-width="2"  stroke-linecap="round">
<line x1="334.3" y1="104.0" x2="309.7" y2="112.0" stroke="rgb(0,0,0)"  stroke-width="2.0"/>
<line x1="315.1" y1="86.7" x2="309.7" y2="112.0" stroke="rgb(0,0,0)"  stroke-width="2.0"/>
<line x1="309.7" y1="112.0" x2="317.7" y2="136.6" stroke="rgb(0,0,0)"  stroke-width="2.0"/>
<line x1="309.7" y1="112.0" x2="271.7" y2="103.9" stroke="rgb(0,0,0)"  stroke-width="2.0"/>
<line x1="262.4" y1="166.6" x2="259.7" y2="140.9" stroke="rgb(0,0,0)"  stroke-width="2.0"/>
<line x1="283.3" y1="151.4" x2="259.7" y2="140.9" stroke="rgb(0,0,0)"  stroke-width="2.0"/>
<line x1="200.7" y1="229.3" x2="198.7" y2="216.6" stroke="rgb(0,0,0)"  stroke-width="2.0"/>
<line x1="274.6" y1="99.5" x2="275.8" y2="100.6" stroke="rgb(0,0,0)"  stroke-width="2.0"/>
<line x1="276.9" y1="96.0" x2="279.0" y2="97.9" stroke="rgb(0,0,0)"  stroke-width="2.0"/>
<line x1="279.2" y1="92.4" x2="282.3" y2="95.2" stroke="rgb(0,0,0)"  stroke-width="2.0"/>
<line x1="281.5" y1="88.9" x2="285.6" y2="92.6" stroke="rgb(0,0,0)"  stroke-width="2.0"/>
<line x1="283.8" y1="85.4" x2="288.8" y2="89.9" stroke="rgb(0,0,0)"  stroke-width="2.0"/>
<line x1="286.1" y1="81.9" x2="292.1" y2="87.2" stroke="rgb(0,0,0)"  stroke-width="2.0"/>
<line x1="253.2" y1="58.6" x2="240.2" y2="81.0" stroke="rgb(0,0,0)"  stroke-width="2.0"/>
<line x1="206.7" y1="195.6" x2="226.9" y2="179.3" stroke="rgb(0,0,0)"  stroke-width="2.0"/>
<line x1="227.9" y1="176.5" x2="288.4" y2="199.7" stroke="rgb(0,0,0)"  stroke-width="2.0"/>
<line x1="225.8" y1="182.1" x2="286.3" y2="205.3" stroke="rgb(0,0,0)"  stroke-width="2.0"/>
<line x1="226.9" y1="179.3" x2="220.8" y2="140.9" stroke="rgb(0,0,0)"  stroke-width="2.0"/>
<line x1="240.2" y1="81.0" x2="227.3" y2="58.6" stroke="rgb(0,0,0)"  stroke-width="2.0"/>
<line x1="215.5" y1="141.5" x2="215.6" y2="139.9" stroke="rgb(0,0,0)"  stroke-width="2.0"/>
<line x1="211.3" y1="141.9" x2="211.5" y2="139.0" stroke="rgb(0,0,0)"  stroke-width="2.0"/>
<line x1="207.1" y1="142.4" x2="207.3" y2="138.2" stroke="rgb(0,0,0)"  stroke-width="2.0"/>
<line x1="203.0" y1="142.8" x2="203.2" y2="137.4" stroke="rgb(0,0,0)"  stroke-width="2.0"/>
<line x1="198.8" y1="143.3" x2="199.1" y2="136.6" stroke="rgb(0,0,0)"  stroke-width="2.0"/>
<line x1="194.6" y1="143.8" x2="194.9" y2="135.8" stroke="rgb(0,0,0)"  stroke-width="2.0"/>
<line x1="196.4" y1="99.9" x2="171.8" y2="91.9" stroke="rgb(0,0,0)"  stroke-width="2.0"/>
<line x1="168.8" y1="92.5" x2="163.5" y2="67.2" stroke="rgb(0,0,0)"  stroke-width="2.0"/>
<line x1="174.7" y1="91.3" x2="169.3" y2="65.9" stroke="rgb(0,0,0)"  stroke-width="2.0"/>
<line x1="171.8" y1="91.9" x2="152.5" y2="109.2" stroke="rgb(0,0,0)"  stroke-width="2.0"/>
<line x1="74.6" y1="160.2" x2="93.9" y2="142.9" stroke="rgb(0,0,0)"  stroke-width="2.0"/>
<line x1="130.5" y1="113.9" x2="105.9" y2="105.9" stroke="rgb(0,0,0)"  stroke-width="2.0"/>
<line x1="69.2" y1="134.9" x2="93.9" y2="142.9" stroke="rgb(0,0,0)"  stroke-width="2.0"/>
<line x1="93.9" y1="142.9" x2="105.9" y2="105.9" stroke="rgb(0,0,0)"  stroke-width="2.0"/>
<line x1="93.9" y1="142.9" x2="111.2" y2="162.1" stroke="rgb(0,0,0)"  stroke-width="2.0"/>
<line x1="137.1" y1="51.6" x2="117.9" y2="68.9" stroke="rgb(0,0,0)"  stroke-width="2.0"/>
<line x1="105.9" y1="105.9" x2="117.9" y2="68.9" stroke="rgb(0,0,0)"  stroke-width="2.0"/>
<line x1="105.9" y1="105.9" x2="68.9" y2="93.9" stroke="rgb(0,0,0)"  stroke-width="2.0"/>
<line x1="117.9" y1="68.9" x2="142.5" y2="76.9" stroke="rgb(0,0,0)"  stroke-width="2.0"/>
<line x1="117.9" y1="68.9" x2="100.6" y2="49.7" stroke="rgb(0,0,0)"  stroke-width="2.0"/>
<line x1="51.6" y1="74.6" x2="68.9" y2="93.9" stroke="rgb(0,0,0)"  stroke-width="2.0"/>
<line x1="68.9" y1="93.9" x2="76.9" y2="69.2" stroke="rgb(0,0,0)"  stroke-width="2.0"/>
<line x1="68.9" y1="93.9" x2="49.7" y2="111.2" stroke="rgb(0,0,0)"  stroke-width="2.0"/>
<line x1="212.8" y1="116.3" x2="220.8" y2="140.9" stroke="rgb(0,0,0)"  stroke-width="2.0"/>
<line x1="220.8" y1="140.9" x2="259.7" y2="140.9" stroke="rgb(0,0,0)"  stroke-width="2.0"/>
<line x1="259.7" y1="140.9" x2="271.7" y2="103.9" stroke="rgb(0,0,0)"  stroke-width="2.0"/>
<line x1="271.7" y1="103.9" x2="240.2" y2="81.0" stroke="rgb(0,0,0)"  stroke-width="2.0"/>
<line x1="240.2" y1="81.0" x2="219.3" y2="96.3" stroke="rgb(0,0,0)"  stroke-width="2.0"/>
<text x="190.635294" y="211.767721" fill="rgb(255,12,12)"  stroke="rgb(255,12,12)" stroke-width="1" font-size="16" >O</text>
<text x="196.718856" y="250.177823" fill="rgb(191,191,191)"  stroke="rgb(191,191,191)" stroke-width="1" font-size="16" >H</text>
<text x="293.469448" y="215.167213" fill="rgb(255,12,12)"  stroke="rgb(255,12,12)" stroke-width="1" font-size="16" >O</text>
<text x="157.685761" y="61.842116" fill="rgb(255,12,12)"  stroke="rgb(255,12,12)" stroke-width="1" font-size="16" >O</text>
<text x="136.871139" y="125.902935" fill="rgb(255,12,12)"  stroke="rgb(255,12,12)" stroke-width="1" font-size="16" >O</text>
<text x="202.756747" y="111.898517" fill="rgb(12,12,255)"  stroke="rgb(12,12,255)" stroke-width="1" font-size="16" >N</text>
<text x="340.704895" y="107.966644" fill="rgb(127,178,255)"  stroke="rgb(127,178,255)" stroke-width="1" font-size="16" >F</text>
<text x="315.736692" y="156.969503" fill="rgb(127,178,255)"  stroke="rgb(127,178,255)" stroke-width="1" font-size="16" >F</text>
<text x="311.804819" y="81.944898" fill="rgb(127,178,255)"  stroke="rgb(127,178,255)" stroke-width="1" font-size="16" >F</text>
<text x="291.702036" y="82.998441" fill="rgb(191,191,191)"  stroke="rgb(191,191,191)" stroke-width="1" font-size="16" >H</text>
<text x="257.727959" y="187.559900" fill="rgb(191,191,191)"  stroke="rgb(191,191,191)" stroke-width="1" font-size="16" >H</text>
<text x="289.189731" y="164.701584" fill="rgb(191,191,191)"  stroke="rgb(191,191,191)" stroke-width="1" font-size="16" >H</text>
<text x="175.921469" y="147.204543" fill="rgb(191,191,191)"  stroke="rgb(191,191,191)" stroke-width="1" font-size="16" >H</text>
<text x="253.662963" y="55.361436" fill="rgb(191,191,191)"  stroke="rgb(191,191,191)" stroke-width="1" font-size="16" >H</text>
<text x="214.774074" y="55.361436" fill="rgb(191,191,191)"  stroke="rgb(191,191,191)" stroke-width="1" font-size="16" >H</text>
<text x="58.968204" y="176.892885" fill="rgb(191,191,191)"  stroke="rgb(191,191,191)" stroke-width="1" font-size="16" >H</text>
<text x="113.890026" y="179.771215" fill="rgb(191,191,191)"  stroke="rgb(191,191,191)" stroke-width="1" font-size="16" >H</text>
<text x="50.882749" y="138.853811" fill="rgb(191,191,191)"  stroke="rgb(191,191,191)" stroke-width="1" font-size="16" >H</text>
<text x="36.878331" y="72.968204" fill="rgb(191,191,191)"  stroke="rgb(191,191,191)" stroke-width="1" font-size="16" >H</text>
<text x="34.000000" y="127.890026" fill="rgb(191,191,191)"  stroke="rgb(191,191,191)" stroke-width="1" font-size="16" >H</text>
<text x="74.917404" y="64.882749" fill="rgb(191,191,191)"  stroke="rgb(191,191,191)" stroke-width="1" font-size="16" >H</text>
<text x="140.803012" y="50.878331" fill="rgb(191,191,191)"  stroke="rgb(191,191,191)" stroke-width="1" font-size="16" >H</text>
<text x="148.888466" y="88.917404" fill="rgb(191,191,191)"  stroke="rgb(191,191,191)" stroke-width="1" font-size="16" >H</text>
<text x="85.881189" y="48.000000" fill="rgb(191,191,191)"  stroke="rgb(191,191,191)" stroke-width="1" font-size="16" >H</text>
</svg>
</g>
<text text-anchor="middle" font-size="3.000000" fill ="black" font-family="sans-serif"
x="75.000000" y="49.000000" >Fragment 12</text>
<g transform="translate(50.000000,0.000000)">
<svg width="50.000000" height="50.000000" x="0" y="0" viewBox="0 0 154.641016 154.641016"
font-family="sans-serif" stroke="rgb(0,0,0)" stroke-width="2.000000"  stroke-linecap="round">
<line x1="103.4" y1="93.5" x2="80.0" y2="80.0" stroke="rgb(0,0,0)"  stroke-width="2.0"/>
<line x1="53.0" y1="80.0" x2="80.0" y2="80.0" stroke="rgb(0,0,0)"  stroke-width="2.0"/>
<line x1="80.0" y1="80.0" x2="66.5" y2="103.4" stroke="rgb(0,0,0)"  stroke-width="2.0"/>
<line x1="80.0" y1="80.0" x2="80.0" y2="53.0" stroke="rgb(0,0,0)"  stroke-width="2.0"/>
<text x="108.641016" y="108.000000" fill="rgb(191,191,191)"  stroke="rgb(191,191,191)" stroke-width="1" font-size="16" >H</text>
<text x="34.000000" y="88.000000" fill="rgb(191,191,191)"  stroke="rgb(191,191,191)" stroke-width="1" font-size="16" >H</text>
<text x="54.000000" y="122.641016" fill="rgb(191,191,191)"  stroke="rgb(191,191,191)" stroke-width="1" font-size="16" >H</text>
<text x="74.000000" y="48.000000" fill="rgb(191,191,191)"  stroke="rgb(191,191,191)" stroke-width="1" font-size="16" >H</text>
</svg>
</g>
<text text-anchor="middle" font-size="3.000000" fill ="black" font-family="sans-serif"
x="25.000000" y="99.000000" >Fragment 20</text>
<g transform="translate(0.000000,50.000000)">
<svg width="50.000000" height="50.000000" x="0" y="0" viewBox="0 0 183.923048 180.000000"
font-family="sans-serif" stroke="rgb(0,0,0)" stroke-width="2.000000"  stroke-linecap="round">
<line x1="132.7" y1="86.5" x2="120.5" y2="93.5" stroke="rgb(0,0,0)"  stroke-width="2.0"/>
<line x1="109.3" y1="127.0" x2="109.3" y2="113.0" stroke="rgb(0,0,0)"  stroke-width="2.0"/>
<line x1="98.0" y1="93.5" x2="74.6" y2="80.0" stroke="rgb(0,0,0)"  stroke-width="2.0"/>
<line x1="71.6" y1="80.0" x2="71.6" y2="53.0" stroke="rgb(0,0,0)"  stroke-width="2.0"/>
<line x1="77.6" y1="80.0" x2="77.6" y2="53.0" stroke="rgb(0,0,0)"  stroke-width="2.0"/>
<line x1="74.6" y1="80.0" x2="51.3" y2="93.5" stroke="rgb(0,0,0)"  stroke-width="2.0"/>
<line x1="40.0" y1="113.0" x2="40.0" y2="127.0" stroke="rgb(0,0,0)"  stroke-width="2.0"/>
<text x="68.641016" y="48.000000" fill="rgb(255,12,12)"  stroke="rgb(255,12,12)" stroke-width="1" font-size="16" >O</text>
<text x="34.000000" y="108.000000" fill="rgb(255,12,12)"  stroke="rgb(255,12,12)" stroke-width="1" font-size="16" >O</text>
<text x="103.282032" y="108.000000" fill="rgb(12,12,255)"  stroke="rgb(12,12,255)" stroke-width="1" font-size="16" >N</text>
<text x="34.000000" y="148.000000" fill="rgb(191,191,191)"  stroke="rgb(191,191,191)" stroke-width="1" font-size="16" >H</text>
<text x="103.282032" y="148.000000" fill="rgb(191,191,191)"  stroke="rgb(191,191,191)" stroke-width="1" font-size="16" >H</text>
<text x="137.923048" y="88.000000" fill="rgb(191,191,191)"  stroke="rgb(191,191,191)" stroke-width="1" font-size="16" >H</text>
</svg>
</g>
<script type="text/ecmascript">
  <![CDATA[
    var svgEl = document.getElementById("topsvg");
    svgEl.addEventListener('DOMMouseScroll', wheel, false);
    svgEl.addEventListener('mousewheel', wheel, false);
    var startx=0;
    var starty=0;
    function wheel(evt){
      evt = evt ? evt : window.event;
      var normal = evt.detail ? evt.detail * -1 : evt.wheelDelta / 40;
      var vb = new Array(4);
      var vbtext = svgEl.getAttributeNS(null,"viewBox");
      vb = vbtext.split(" ");
      var zoom = (normal<0)? 1.41 : 0.71;
      //var dwidth = parseFloat(Math.max(vb[2],vb[3])) * (1-zoom);
      vb[0] = parseFloat(vb[0]) + parseFloat(vb[2])*(1-zoom) * evt.clientX/innerWidth;
      vb[1] = parseFloat(vb[1]) + parseFloat(vb[3])*(1-zoom) * evt.clientY/innerHeight;
      vb[2] = parseFloat(vb[2]) * zoom;
      vb[3] = parseFloat(vb[3]) * zoom;
      svgEl.setAttributeNS(null, "viewBox", vb.join(" "));
      if (evt.preventDefault)
        evt.preventDefault(); // Don't scroll the page when zooming
    }
   svgEl.onmousedown = function(evt) {
      startx = evt.clientX;
      starty = evt.clientY;
    }
    svgEl.onmousemove=function(evt) {
      if(startx!=0 && starty!=0 
        && ((evt.clientX - startx)*(evt.clientX - startx)+(evt.clientY - starty)*(evt.clientY - starty)>100))
      {
        var vbtext = svgEl.getAttributeNS(null,"viewBox");
        vb = vbtext.split(" ");
        var maxwh = Math.max(parseFloat(vb[2]),parseFloat(vb[3]));
        vb[0] = parseFloat(vb[0]) - (evt.clientX - startx)*maxwh/innerWidth;
        vb[1] = parseFloat(vb[1]) - (evt.clientY - starty)*maxwh/innerHeight;
        svgEl.setAttributeNS(null, "viewBox", vb.join(" "));
        startx = evt.clientX;
        starty = evt.clientY;
      }
    } 
    svgEl.onmouseup=function() {
      startx=0;
      starty=0;
    }
    svgEl.ondblclick=function() {
      location.reload();
    }
  ]]>
</script>

</svg>

